<svg width="500" height="500" viewBox="0 0 500 500" fill="none" xmlns="http://www.w3.org/2000/svg">
<rect width="500" height="500" fill="#080813"/>
<path d="M326.4 359.412C299.2 359.412 277.7 351.912 261.9 336.912C246.3 321.712 238.5 298.412 238.5 267.012C238.5 248.612 242 232.412 249 218.412C256 204.212 267.1 193.212 282.3 185.412C297.5 177.412 317.2 173.412 341.4 173.412C360.4 173.412 376.1 174.412 388.5 176.412C401.1 178.412 409.7 180.412 414.3 182.412V188.412L420.3 215.412C414.9 211.412 405.4 207.412 391.8 203.412C378.2 199.412 361.6 197.412 342 197.412C326 197.412 312.8 200.412 302.4 206.412C292 212.212 284.3 220.312 279.3 230.712C274.5 241.112 272.1 253.212 272.1 267.012C272.1 281.412 274.3 293.712 278.7 303.912C283.3 314.112 290.5 321.912 300.3 327.312C310.1 332.512 322.9 335.112 338.7 335.112C352.3 335.112 363.1 333.612 371.1 330.612C379.1 327.612 384.8 323.612 388.2 318.612C391.6 313.412 393.3 307.812 393.3 301.812V294.012C393.3 289.412 392.9 286.812 392.1 286.212C391.5 285.412 388.9 285.012 384.3 285.012H374.7C363.5 285.012 354.5 285.712 347.7 287.112C341.1 288.512 336.9 289.912 335.1 291.312L338.1 267.612V261.612H432.6C431.2 261.812 429.8 263.312 428.4 266.112C427.2 268.712 426.6 273.212 426.6 279.612V338.412C426.6 344.812 427.2 349.412 428.4 352.212C429.8 355.012 431.2 356.412 432.6 356.412H393.3V349.512L393.9 341.112L393.3 340.512C390.1 343.912 385.9 347.112 380.7 350.112C375.5 352.912 368.5 355.112 359.7 356.712C351.1 358.512 340 359.412 326.4 359.412Z" fill="#BD0FA8"/>
<path d="M326.4 377.727C299.2 377.727 277.7 370.227 261.9 355.227C246.3 340.027 238.5 316.727 238.5 285.327C238.5 266.927 242 250.727 249 236.727C256 222.527 267.1 211.527 282.3 203.727C297.5 195.727 317.2 191.727 341.4 191.727C360.4 191.727 376.1 192.727 388.5 194.727C401.1 196.727 409.7 198.727 414.3 200.727V206.727L420.3 233.727C414.9 229.727 405.4 225.727 391.8 221.727C378.2 217.727 361.6 215.727 342 215.727C326 215.727 312.8 218.727 302.4 224.727C292 230.527 284.3 238.627 279.3 249.027C274.5 259.427 272.1 271.527 272.1 285.327C272.1 299.727 274.3 312.027 278.7 322.227C283.3 332.427 290.5 340.227 300.3 345.627C310.1 350.827 322.9 353.427 338.7 353.427C352.3 353.427 363.1 351.927 371.1 348.927C379.1 345.927 384.8 341.927 388.2 336.927C391.6 331.727 393.3 326.127 393.3 320.127V312.327C393.3 307.727 392.9 305.127 392.1 304.527C391.5 303.727 388.9 303.327 384.3 303.327H374.7C363.5 303.327 354.5 304.027 347.7 305.427C341.1 306.827 336.9 308.227 335.1 309.627L338.1 285.927V279.927H432.6C431.2 280.127 429.8 281.627 428.4 284.427C427.2 287.027 426.6 291.527 426.6 297.927V356.727C426.6 363.127 427.2 367.727 428.4 370.527C429.8 373.327 431.2 374.727 432.6 374.727H393.3V367.827L393.9 359.427L393.3 358.827C390.1 362.227 385.9 365.427 380.7 368.427C375.5 371.227 368.5 373.427 359.7 375.027C351.1 376.827 340 377.727 326.4 377.727Z" fill="#4FDBED"/>
<path d="M326.4 365.823C299.2 365.823 277.7 358.323 261.9 343.323C246.3 328.123 238.5 304.823 238.5 273.423C238.5 255.023 242 238.823 249 224.823C256 210.623 267.1 199.623 282.3 191.822C297.5 183.823 317.2 179.823 341.4 179.823C360.4 179.823 376.1 180.823 388.5 182.823C401.1 184.823 409.7 186.822 414.3 188.822V194.823L420.3 221.823C414.9 217.823 405.4 213.823 391.8 209.822C378.2 205.822 361.6 203.823 342 203.823C326 203.823 312.8 206.823 302.4 212.823C292 218.623 284.3 226.723 279.3 237.123C274.5 247.523 272.1 259.623 272.1 273.423C272.1 287.823 274.3 300.123 278.7 310.323C283.3 320.523 290.5 328.323 300.3 333.723C310.1 338.923 322.9 341.523 338.7 341.523C352.3 341.523 363.1 340.023 371.1 337.023C379.1 334.023 384.8 330.023 388.2 325.023C391.6 319.823 393.3 314.223 393.3 308.223V300.423C393.3 295.823 392.9 293.223 392.1 292.623C391.5 291.823 388.9 291.423 384.3 291.423H374.7C363.5 291.423 354.5 292.123 347.7 293.523C341.1 294.923 336.9 296.323 335.1 297.723L338.1 274.023V268.023H432.6C431.2 268.223 429.8 269.723 428.4 272.523C427.2 275.123 426.6 279.623 426.6 286.023V344.823C426.6 351.223 427.2 355.823 428.4 358.623C429.8 361.423 431.2 362.823 432.6 362.823H393.3V355.923L393.9 347.523L393.3 346.923C390.1 350.323 385.9 353.523 380.7 356.523C375.5 359.323 368.5 361.523 359.7 363.123C351.1 364.923 340 365.823 326.4 365.823Z" fill="white"/>
<path d="M74.4 331C75.9867 331 77.5733 329.413 79.16 326.24C80.7467 323.067 81.54 317.853 81.54 310.6V147.4C81.54 140.147 80.7467 135.047 79.16 132.1C77.5733 128.927 75.9867 127.227 74.4 127H265.82V133.8L272.62 166.44C266.953 163.947 256.98 161.34 242.7 158.62C228.42 155.673 211.193 154.2 191.02 154.2H133.56C126.76 154.2 122.68 154.767 121.32 155.9C120.187 156.807 119.62 159.64 119.62 164.4V203.16C119.62 208.147 120.187 211.093 121.32 212C122.68 212.907 126.647 213.36 133.22 213.36H189.32C202.467 213.36 213.007 212.68 220.94 211.32C229.1 209.733 234.427 208.147 236.92 206.56C236.013 209.507 234.993 213.02 233.86 217.1C232.727 221.18 231.82 225.26 231.14 229.34C230.46 233.42 230.12 237.16 230.12 240.56H133.22C126.647 240.56 122.68 241.013 121.32 241.92C120.187 242.6 119.62 245.547 119.62 250.76V310.6C119.62 318.08 120.413 323.407 122 326.58C123.587 329.527 125.173 331 126.76 331H74.4Z" fill="#BD0FA8"/>
<path d="M74.4 352.745C75.9867 352.745 77.5733 351.159 79.16 347.985C80.7467 344.812 81.54 339.599 81.54 332.345V169.145C81.54 161.892 80.7467 156.792 79.16 153.845C77.5733 150.672 75.9867 148.972 74.4 148.745H265.82V155.545L272.62 188.185C266.953 185.692 256.98 183.085 242.7 180.365C228.42 177.419 211.193 175.945 191.02 175.945H133.56C126.76 175.945 122.68 176.512 121.32 177.645C120.187 178.552 119.62 181.385 119.62 186.145V224.905C119.62 229.892 120.187 232.839 121.32 233.745C122.68 234.652 126.647 235.105 133.22 235.105H189.32C202.467 235.105 213.007 234.425 220.94 233.065C229.1 231.479 234.427 229.892 236.92 228.305C236.013 231.252 234.993 234.765 233.86 238.845C232.727 242.925 231.82 247.005 231.14 251.085C230.46 255.165 230.12 258.905 230.12 262.305H133.22C126.647 262.305 122.68 262.759 121.32 263.665C120.187 264.345 119.62 267.292 119.62 272.505V332.345C119.62 339.825 120.413 345.152 122 348.325C123.587 351.272 125.173 352.745 126.76 352.745H74.4Z" fill="#4FDBED"/>
<path d="M74.4 343.081C75.9867 343.081 77.5733 341.494 79.16 338.321C80.7467 335.147 81.54 329.934 81.54 322.681V159.481C81.54 152.227 80.7467 147.127 79.16 144.181C77.5733 141.007 75.9867 139.307 74.4 139.081H265.82V145.881L272.62 178.521C266.953 176.027 256.98 173.421 242.7 170.701C228.42 167.754 211.193 166.281 191.02 166.281H133.56C126.76 166.281 122.68 166.847 121.32 167.981C120.187 168.887 119.62 171.721 119.62 176.481V215.241C119.62 220.227 120.187 223.174 121.32 224.081C122.68 224.987 126.647 225.441 133.22 225.441H189.32C202.467 225.441 213.007 224.761 220.94 223.401C229.1 221.814 234.427 220.227 236.92 218.641C236.013 221.587 234.993 225.101 233.86 229.181C232.727 233.261 231.82 237.341 231.14 241.421C230.46 245.501 230.12 249.241 230.12 252.641H133.22C126.647 252.641 122.68 253.094 121.32 254.001C120.187 254.681 119.62 257.627 119.62 262.841V322.681C119.62 330.161 120.413 335.487 122 338.661C123.587 341.607 125.173 343.081 126.76 343.081H74.4Z" fill="white"/>
</svg>
